<svg width="24" height="22" viewBox="0 0 24 22" fill="none" xmlns="http://www.w3.org/2000/svg">
<path d="M12 22C11.7267 21.9998 11.4646 21.8874 11.2714 21.6875L1.96481 12.0439C0.70542 10.7165 0 8.93179 0 7.073C0 5.2142 0.70542 3.42951 1.96481 2.10206C3.24092 0.783778 4.97161 0.043185 6.7762 0.043185C8.5808 0.043185 10.3115 0.783778 11.5876 2.10206L12 2.47133L12.3849 2.07366C13.0159 1.41465 13.7674 0.891932 14.5958 0.535934C15.4242 0.179937 16.3129 -0.00222032 17.21 7.014e-05C18.1063 -0.00407842 18.9944 0.175843 19.8227 0.52938C20.651 0.882917 21.4031 1.40302 22.0352 2.05946C23.2946 3.3869 24 5.1716 24 7.03039C24 8.88918 23.2946 10.6739 22.0352 12.0013L12.7286 21.6449C12.6364 21.7516 12.5244 21.838 12.3992 21.899C12.2741 21.96 12.1383 21.9944 12 22ZM6.78995 2.11627C6.16561 2.11157 5.54655 2.23466 4.96849 2.47843C4.39043 2.72219 3.86482 3.08181 3.42198 3.53653C2.52963 4.46277 2.02867 5.71643 2.02867 7.02329C2.02867 8.33014 2.52963 9.58381 3.42198 10.51L12 19.4293L20.5643 10.5384C21.0078 10.0807 21.3596 9.53721 21.5997 8.93892C21.8397 8.34064 21.9633 7.69934 21.9633 7.05169C21.9633 6.40404 21.8397 5.76274 21.5997 5.16446C21.3596 4.56618 21.0078 4.02265 20.5643 3.56494C20.1249 3.10936 19.6019 2.74905 19.0259 2.50516C18.4499 2.26127 17.8325 2.13871 17.21 2.14467C16.5857 2.13998 15.9666 2.26306 15.3886 2.50683C14.8105 2.7506 14.2849 3.11022 13.8421 3.56494L12.7286 4.71535C12.5319 4.90816 12.2711 5.01564 12 5.01564C11.7289 5.01564 11.4681 4.90816 11.2714 4.71535L10.1579 3.56494C9.71735 3.10509 9.19276 2.74023 8.6146 2.49154C8.03643 2.24286 7.41622 2.1153 6.78995 2.11627Z" fill="#DC0500"/>
</svg>
