<svg width="19" height="19" viewBox="0 0 19 19" fill="none" xmlns="http://www.w3.org/2000/svg">
<path d="M18.2794 7.36031C18.2375 7.22744 18.159 7.10909 18.0529 7.01887C17.9467 6.92865 17.8173 6.87022 17.6794 6.85031L12.2594 6.06031L9.82941 1.15031C9.76025 1.03428 9.66214 0.938205 9.5447 0.871483C9.42725 0.804762 9.29449 0.769684 9.15941 0.769684C9.02434 0.769684 8.89157 0.804762 8.77413 0.871483C8.65668 0.938205 8.55857 1.03428 8.48941 1.15031L6.05941 6.06031L0.639412 6.85031C0.501538 6.87022 0.372084 6.92865 0.265942 7.01887C0.1598 7.10909 0.0812794 7.22744 0.0394126 7.36031C-0.00528311 7.49268 -0.0121144 7.63491 0.0196891 7.77096C0.0514926 7.90701 0.120666 8.03147 0.219412 8.13031L4.15941 11.9503L3.22941 17.3503C3.20584 17.4893 3.22142 17.6322 3.2744 17.7629C3.32738 17.8936 3.41568 18.0069 3.52941 18.0903C3.64333 18.1715 3.77768 18.2192 3.91728 18.228C4.05688 18.2369 4.19617 18.2065 4.31941 18.1403L9.15941 15.5903L14.0094 18.1403C14.1167 18.1992 14.237 18.2301 14.3594 18.2303C14.5167 18.2285 14.67 18.1798 14.7994 18.0903C14.9131 18.0069 15.0014 17.8936 15.0544 17.7629C15.1074 17.6322 15.123 17.4893 15.0994 17.3503L14.1594 11.9503L18.0894 8.13031C18.1899 8.03254 18.2609 7.90858 18.2945 7.77248C18.3281 7.63638 18.3229 7.49359 18.2794 7.36031Z" fill="#FFEB0E"/>
</svg>
