<svg width="193" height="29" viewBox="0 0 193 29" fill="none" xmlns="http://www.w3.org/2000/svg">
<path d="M8.4 21V5.7H0.6V0.899999H21.63V5.7H13.8V21H8.4ZM31.4445 21.6C29.7645 21.6 28.3745 21.4 27.2745 21C26.1745 20.62 25.2945 20.09 24.6345 19.41C23.9745 18.73 23.5145 17.94 23.2545 17.04C22.9945 16.12 22.8645 15.14 22.8645 14.1V12.9C22.8645 11.86 22.9945 10.89 23.2545 9.99C23.5145 9.07 23.9745 8.27 24.6345 7.59C25.2945 6.91 26.1745 6.38 27.2745 6C28.3745 5.6 29.7645 5.4 31.4445 5.4H32.2845C33.9845 5.4 35.3745 5.53 36.4545 5.79C37.5345 6.03 38.3745 6.37 38.9745 6.81C39.5745 7.25 39.9845 7.76 40.2045 8.34C40.4245 8.92 40.5345 9.54 40.5345 10.2V10.5C40.5345 11.1 40.4545 11.67 40.2945 12.21C40.1545 12.75 39.8045 13.23 39.2445 13.65C38.6845 14.07 37.8545 14.4 36.7545 14.64C35.6745 14.88 34.1945 15 32.3145 15C31.4145 15 30.5845 14.96 29.8245 14.88C29.0645 14.8 28.3445 14.66 27.6645 14.46C27.6845 14.88 27.7545 15.27 27.8745 15.63C27.9945 15.97 28.2145 16.26 28.5345 16.5C28.8745 16.74 29.3445 16.93 29.9445 17.07C30.5445 17.19 31.3445 17.25 32.3445 17.25C32.8245 17.25 33.3545 17.23 33.9345 17.19C34.5345 17.15 35.1445 17.1 35.7645 17.04C36.4045 16.96 37.0245 16.87 37.6245 16.77C38.2445 16.65 38.8145 16.51 39.3345 16.35V20.85C38.8145 20.97 38.2445 21.07 37.6245 21.15C37.0245 21.25 36.3945 21.33 35.7345 21.39C35.0945 21.47 34.4545 21.52 33.8145 21.54C33.1745 21.58 32.5745 21.6 32.0145 21.6H31.4445ZM32.3145 9.15C31.5145 9.15 30.8445 9.2 30.3045 9.3C29.7645 9.38 29.3245 9.51 28.9845 9.69C28.6445 9.87 28.3845 10.09 28.2045 10.35C28.0245 10.61 27.8945 10.91 27.8145 11.25C28.3945 11.41 29.0145 11.53 29.6745 11.61C30.3545 11.67 31.1345 11.7 32.0145 11.7C32.8945 11.7 33.5845 11.67 34.0845 11.61C34.5845 11.53 34.9545 11.44 35.1945 11.34C35.4345 11.22 35.5845 11.1 35.6445 10.98C35.7045 10.84 35.7345 10.7 35.7345 10.56C35.7345 10.42 35.7045 10.27 35.6445 10.11C35.6045 9.93 35.4645 9.77 35.2245 9.63C35.0045 9.49 34.6645 9.38 34.2045 9.3C33.7445 9.2 33.1145 9.15 32.3145 9.15ZM44.134 12.9C44.134 11.86 44.264 10.89 44.524 9.99C44.784 9.07 45.244 8.27 45.904 7.59C46.564 6.91 47.444 6.38 48.544 6C49.644 5.6 51.034 5.4 52.714 5.4H53.554C55.234 5.4 56.624 5.6 57.724 6C58.824 6.38 59.704 6.91 60.364 7.59C61.024 8.27 61.484 9.07 61.744 9.99C62.004 10.89 62.134 11.86 62.134 12.9V14.1C62.134 15.14 62.004 16.12 61.744 17.04C61.484 17.94 61.024 18.73 60.364 19.41C59.704 20.09 58.824 20.62 57.724 21C56.624 21.4 55.234 21.6 53.554 21.6H52.714C51.034 21.6 49.644 21.4 48.544 21C47.444 20.62 46.564 20.09 45.904 19.41C45.244 18.73 44.784 17.94 44.524 17.04C44.264 16.12 44.134 15.14 44.134 14.1V12.9ZM48.934 13.5C48.934 13.98 48.954 14.45 48.994 14.91C49.034 15.37 49.184 15.77 49.444 16.11C49.724 16.45 50.144 16.73 50.704 16.95C51.264 17.15 52.074 17.25 53.134 17.25C54.174 17.25 54.974 17.15 55.534 16.95C56.114 16.73 56.534 16.45 56.794 16.11C57.074 15.77 57.234 15.37 57.274 14.91C57.314 14.45 57.334 13.98 57.334 13.5C57.334 13.02 57.314 12.55 57.274 12.09C57.234 11.63 57.074 11.23 56.794 10.89C56.534 10.55 56.114 10.28 55.534 10.08C54.974 9.86 54.174 9.75 53.134 9.75C52.074 9.75 51.264 9.86 50.704 10.08C50.144 10.28 49.724 10.55 49.444 10.89C49.184 11.23 49.034 11.63 48.994 12.09C48.954 12.55 48.934 13.02 48.934 13.5ZM66.9258 6L68.5458 6.96C69.5058 6.44 70.5258 6.05 71.6058 5.79C72.6858 5.53 73.8858 5.4 75.2058 5.4C76.8858 5.4 78.2758 5.6 79.3758 6C80.4758 6.38 81.3558 6.91 82.0158 7.59C82.6758 8.27 83.1358 9.07 83.3958 9.99C83.6558 10.89 83.7858 11.86 83.7858 12.9V14.1C83.7858 15.14 83.6558 16.12 83.3958 17.04C83.1358 17.94 82.6758 18.73 82.0158 19.41C81.3558 20.09 80.4758 20.62 79.3758 21C78.2758 21.4 76.8858 21.6 75.2058 21.6C74.3058 21.6 73.4758 21.54 72.7158 21.42C71.9558 21.3 71.2258 21.13 70.5258 20.91V28.5H65.7258V6H66.9258ZM74.9358 9.75C74.0958 9.75 73.3158 9.81 72.5958 9.93C71.8758 10.03 71.1858 10.19 70.5258 10.41V16.62C71.8458 17.04 73.3158 17.25 74.9358 17.25C75.9558 17.25 76.7358 17.15 77.2758 16.95C77.8158 16.73 78.2158 16.45 78.4758 16.11C78.7358 15.77 78.8858 15.37 78.9258 14.91C78.9658 14.45 78.9858 13.98 78.9858 13.5C78.9858 13.02 78.9658 12.55 78.9258 12.09C78.8858 11.63 78.7358 11.23 78.4758 10.89C78.2158 10.55 77.8158 10.28 77.2758 10.08C76.7358 9.86 75.9558 9.75 74.9358 9.75ZM95.9562 21.6C94.2762 21.6 92.8862 21.4 91.7862 21C90.6862 20.62 89.8062 20.09 89.1462 19.41C88.4862 18.73 88.0262 17.94 87.7662 17.04C87.5062 16.12 87.3762 15.14 87.3762 14.1V12.9C87.3762 11.86 87.5062 10.89 87.7662 9.99C88.0262 9.07 88.4862 8.27 89.1462 7.59C89.8062 6.91 90.6862 6.38 91.7862 6C92.8862 5.6 94.2762 5.4 95.9562 5.4H96.7962C98.4962 5.4 99.8862 5.53 100.966 5.79C102.046 6.03 102.886 6.37 103.486 6.81C104.086 7.25 104.496 7.76 104.716 8.34C104.936 8.92 105.046 9.54 105.046 10.2V10.5C105.046 11.1 104.966 11.67 104.806 12.21C104.666 12.75 104.316 13.23 103.756 13.65C103.196 14.07 102.366 14.4 101.266 14.64C100.186 14.88 98.7062 15 96.8262 15C95.9262 15 95.0962 14.96 94.3362 14.88C93.5762 14.8 92.8562 14.66 92.1762 14.46C92.1962 14.88 92.2662 15.27 92.3862 15.63C92.5062 15.97 92.7262 16.26 93.0462 16.5C93.3862 16.74 93.8562 16.93 94.4562 17.07C95.0562 17.19 95.8562 17.25 96.8562 17.25C97.3362 17.25 97.8662 17.23 98.4462 17.19C99.0462 17.15 99.6562 17.1 100.276 17.04C100.916 16.96 101.536 16.87 102.136 16.77C102.756 16.65 103.326 16.51 103.846 16.35V20.85C103.326 20.97 102.756 21.07 102.136 21.15C101.536 21.25 100.906 21.33 100.246 21.39C99.6062 21.47 98.9662 21.52 98.3262 21.54C97.6862 21.58 97.0862 21.6 96.5262 21.6H95.9562ZM96.8262 9.15C96.0262 9.15 95.3562 9.2 94.8162 9.3C94.2762 9.38 93.8362 9.51 93.4962 9.69C93.1562 9.87 92.8962 10.09 92.7162 10.35C92.5362 10.61 92.4062 10.91 92.3262 11.25C92.9062 11.41 93.5262 11.53 94.1862 11.61C94.8662 11.67 95.6462 11.7 96.5262 11.7C97.4062 11.7 98.0962 11.67 98.5962 11.61C99.0962 11.53 99.4662 11.44 99.7062 11.34C99.9462 11.22 100.096 11.1 100.156 10.98C100.216 10.84 100.246 10.7 100.246 10.56C100.246 10.42 100.216 10.27 100.156 10.11C100.116 9.93 99.9762 9.77 99.7362 9.63C99.5162 9.49 99.1762 9.38 98.7162 9.3C98.2562 9.2 97.6262 9.15 96.8262 9.15ZM117.436 17.7L113.596 12.84V21H108.796V6H113.116L118.546 12.66L123.976 6H128.296V21H123.496V12.84L119.656 17.7H117.436ZM150.234 6V21H145.434V11.76L137.004 21H132.204V6H137.004V15.24L145.434 6H150.234ZM166.957 21L163.597 15.72H158.797V21H153.997V6L158.797 6.03V11.28H163.597L166.957 6H171.577V7.2L167.587 13.5L171.577 19.8V21H166.957ZM192.214 21H191.014L189.394 20.07C188.374 20.59 187.314 20.97 186.214 21.21C185.114 21.47 183.874 21.6 182.494 21.6C180.874 21.6 179.524 21.46 178.444 21.18C177.384 20.92 176.534 20.56 175.894 20.1C175.254 19.62 174.804 19.08 174.544 18.48C174.284 17.86 174.154 17.22 174.154 16.56V16.26C174.154 15.64 174.284 15.05 174.544 14.49C174.824 13.93 175.284 13.44 175.924 13.02C176.584 12.6 177.434 12.27 178.474 12.03C179.534 11.79 180.844 11.67 182.404 11.67C184.364 11.67 186.034 11.86 187.414 12.24C187.394 11.84 187.334 11.49 187.234 11.19C187.154 10.87 186.964 10.61 186.664 10.41C186.364 10.19 185.914 10.03 185.314 9.93C184.734 9.81 183.954 9.75 182.974 9.75C182.434 9.75 181.854 9.77 181.234 9.81C180.614 9.85 179.984 9.91 179.344 9.99C178.724 10.05 178.104 10.14 177.484 10.26C176.884 10.38 176.324 10.51 175.804 10.65V6.15C176.324 6.03 176.884 5.93 177.484 5.85C178.104 5.75 178.734 5.67 179.374 5.61C180.034 5.53 180.674 5.48 181.294 5.46C181.934 5.42 182.544 5.4 183.124 5.4C184.804 5.4 186.214 5.55 187.354 5.85C188.514 6.13 189.454 6.55 190.174 7.11C190.894 7.65 191.414 8.33 191.734 9.15C192.054 9.97 192.214 10.92 192.214 12V21ZM183.004 17.85C184.584 17.85 186.054 17.64 187.414 17.22V15.81C186.734 15.63 186.014 15.5 185.254 15.42C184.494 15.32 183.644 15.27 182.704 15.27C181.804 15.27 181.104 15.31 180.604 15.39C180.104 15.47 179.734 15.58 179.494 15.72C179.254 15.84 179.104 15.98 179.044 16.14C178.984 16.3 178.954 16.45 178.954 16.59C178.954 16.77 178.984 16.94 179.044 17.1C179.104 17.24 179.264 17.37 179.524 17.49C179.804 17.61 180.214 17.7 180.754 17.76C181.294 17.82 182.044 17.85 183.004 17.85Z" fill="black"/>
</svg>
